<?xml version="1.0" encoding="UTF-8"?> <svg xmlns="http://www.w3.org/2000/svg" width="533" height="76" viewBox="0 0 533 76" fill="none"><path d="M470.275 49.3304C469.303 49.3304 468.482 49.1156 467.813 48.6861C467.144 48.2519 466.637 47.6528 466.294 46.8885C465.95 46.1243 465.778 45.2425 465.778 44.2432C465.778 43.2438 465.95 42.362 466.294 41.5978C466.637 40.8335 467.144 40.2366 467.813 39.807C468.482 39.3729 469.303 39.1559 470.275 39.1559C471.41 39.1559 472.337 39.4475 473.056 40.0309C473.775 40.6097 474.268 41.3875 474.535 42.3642L473.518 42.6288C473.31 41.8555 472.936 41.2428 472.398 40.7906C471.86 40.3384 471.153 40.1123 470.275 40.1123C469.511 40.1123 468.876 40.2864 468.369 40.6346C467.863 40.9828 467.481 41.4689 467.223 42.0929C466.97 42.7124 466.838 43.4292 466.829 44.2432C466.825 45.0571 466.949 45.7739 467.203 46.3934C467.46 47.0129 467.845 47.499 468.356 47.8517C468.871 48.1999 469.511 48.374 470.275 48.374C471.153 48.374 471.86 48.1479 472.398 47.6957C472.936 47.239 473.31 46.6263 473.518 45.8575L474.535 46.1221C474.268 47.0988 473.775 47.8789 473.056 48.4622C472.337 49.041 471.41 49.3304 470.275 49.3304ZM478.019 49.127V42.7237H475.421V41.8013H481.614V42.7237H479.016V49.127H478.019ZM484.725 49.3304C484.173 49.3304 483.71 49.231 483.335 49.032C482.964 48.833 482.686 48.5685 482.5 48.2384C482.315 47.9083 482.222 47.5488 482.222 47.1599C482.222 46.7619 482.301 46.4228 482.46 46.1424C482.622 45.8575 482.842 45.6246 483.118 45.4438C483.398 45.2629 483.721 45.125 484.088 45.03C484.458 44.9395 484.868 44.8604 485.315 44.7926C485.767 44.7202 486.208 44.6592 486.638 44.6094C487.072 44.5552 487.452 44.5032 487.778 44.4534L487.425 44.6705C487.438 43.947 487.298 43.4111 487.004 43.0629C486.71 42.7147 486.199 42.5406 485.471 42.5406C484.969 42.5406 484.544 42.6537 484.196 42.8798C483.852 43.1059 483.61 43.4631 483.47 43.9515L482.5 43.6666C482.668 43.0109 483.005 42.5022 483.511 42.1404C484.017 41.7786 484.675 41.5978 485.485 41.5978C486.154 41.5978 486.722 41.7244 487.187 41.9776C487.658 42.2263 487.99 42.5881 488.185 43.0629C488.275 43.2754 488.334 43.5128 488.361 43.7751C488.388 44.0374 488.402 44.3042 488.402 44.5755V49.127H487.513V47.2887L487.771 47.3973C487.522 48.0258 487.135 48.5052 486.611 48.8353C486.086 49.1654 485.458 49.3304 484.725 49.3304ZM484.84 48.469C485.306 48.469 485.713 48.3853 486.061 48.218C486.41 48.0507 486.69 47.8223 486.903 47.5329C487.115 47.239 487.253 46.9089 487.316 46.5426C487.371 46.3075 487.4 46.0497 487.404 45.7693C487.409 45.4845 487.411 45.2719 487.411 45.1317L487.791 45.3284C487.452 45.3737 487.083 45.4189 486.685 45.4641C486.292 45.5093 485.903 45.5613 485.519 45.6201C485.139 45.6789 484.795 45.749 484.488 45.8304C484.28 45.8892 484.079 45.9728 483.884 46.0814C483.69 46.1854 483.529 46.3256 483.402 46.5019C483.28 46.6783 483.219 46.8976 483.219 47.1599C483.219 47.3724 483.271 47.5782 483.375 47.7771C483.484 47.9761 483.656 48.1411 483.891 48.2723C484.131 48.4034 484.447 48.469 484.84 48.469ZM492.155 49.127V42.7237H489.557V41.8013H495.75V42.7237H493.152V49.127H492.155ZM502.863 41.8013V49.127H501.893V43.4224L497.878 49.127H497.036V41.8013H498.006V47.4583L502.029 41.8013H502.863ZM509.25 49.127V46.4002C509.006 46.5223 508.706 46.6285 508.348 46.719C507.991 46.8094 507.607 46.8546 507.195 46.8546C506.454 46.8546 505.852 46.6896 505.391 46.3595C504.93 46.0294 504.629 45.5523 504.489 44.9282C504.444 44.7428 504.412 44.5461 504.394 44.3381C504.38 44.1301 504.371 43.9424 504.367 43.7751C504.362 43.6078 504.36 43.488 504.36 43.4156V41.8013H505.364V43.4156C505.364 43.5648 505.368 43.7344 505.377 43.9243C505.386 44.1143 505.407 44.2997 505.438 44.4806C505.529 44.9735 505.732 45.3465 506.049 45.5998C506.37 45.853 506.82 45.9796 507.399 45.9796C507.76 45.9796 508.102 45.9344 508.423 45.844C508.749 45.749 509.024 45.6224 509.25 45.4641V41.8013H510.248V49.127H509.25ZM512.139 49.127V41.8013H513.136V44.9825H517.267V41.8013H518.264V49.127H517.267V45.9389H513.136V49.127H512.139ZM523.22 49.3304C522.492 49.3304 521.871 49.1654 521.355 48.8353C520.84 48.5052 520.444 48.0484 520.168 47.4651C519.892 46.8818 519.754 46.2125 519.754 45.4573C519.754 44.6886 519.894 44.0148 520.175 43.436C520.455 42.8571 520.853 42.4072 521.369 42.0861C521.889 41.7606 522.506 41.5978 523.22 41.5978C523.953 41.5978 524.577 41.7628 525.092 42.0929C525.613 42.4185 526.008 42.873 526.28 43.4563C526.555 44.0351 526.693 44.7021 526.693 45.4573C526.693 46.2261 526.555 46.9021 526.28 47.4855C526.004 48.0643 525.606 48.5165 525.086 48.8421C524.566 49.1677 523.944 49.3304 523.22 49.3304ZM523.22 48.374C524.034 48.374 524.64 48.105 525.038 47.5669C525.436 47.0242 525.635 46.321 525.635 45.4573C525.635 44.571 525.434 43.8656 525.031 43.341C524.634 42.8165 524.03 42.5542 523.22 42.5542C522.673 42.5542 522.221 42.6785 521.864 42.9272C521.511 43.1714 521.247 43.5128 521.07 43.9515C520.898 44.3856 520.812 44.8875 520.812 45.4573C520.812 46.3391 521.016 47.0468 521.423 47.5804C521.83 48.1095 522.429 48.374 523.22 48.374Z" fill="#FA840B"></path><rect x="7" y="21.5586" width="164.731" height="11.6281" stroke="#FA840B"></rect><rect x="125.219" y="33.1875" width="164.731" height="11.6281" stroke="#FA840B"></rect><rect x="361.656" y="56.4453" width="164.731" height="11.6281" stroke="#FA840B"></rect><rect x="243.438" y="44.8145" width="164.731" height="11.6281" stroke="#FA840B"></rect><path d="M113.944 10.2852C114.14 10.0899 114.14 9.77334 113.944 9.57808L110.762 6.3961C110.567 6.20084 110.251 6.20084 110.055 6.3961C109.86 6.59136 109.86 6.90794 110.055 7.1032L112.884 9.93163L110.055 12.7601C109.86 12.9553 109.86 13.2719 110.055 13.4672C110.251 13.6624 110.567 13.6624 110.762 13.4672L113.944 10.2852ZM7 10.4316L113.591 10.4316L113.591 9.43163L7 9.43164L7 10.4316Z" fill="#FA840B"></path></svg> 