<?xml version="1.0" encoding="UTF-8"?> <svg xmlns="http://www.w3.org/2000/svg" width="528" height="68" viewBox="0 0 528 68" fill="none"><rect x="3" y="23.4141" width="164.925" height="11.6418" stroke="#FA840B" stroke-width="0.970149"></rect><rect x="121.359" y="35.0566" width="164.925" height="11.6418" stroke="#FA840B" stroke-width="0.970149"></rect><rect x="358.074" y="35.0566" width="164.925" height="11.6418" stroke="#FA840B" stroke-width="0.970149"></rect><rect x="239.715" y="23.4141" width="164.925" height="11.6418" stroke="#FA840B" stroke-width="0.970149"></rect><path d="M110.059 12.1164C110.249 11.927 110.249 11.6199 110.059 11.4304L106.972 8.34343C106.783 8.154 106.476 8.154 106.286 8.34343C106.097 8.53287 106.097 8.84 106.286 9.02943L109.03 11.7734L106.286 14.5174C106.097 14.7069 106.097 15.014 106.286 15.2034C106.476 15.3929 106.783 15.3929 106.972 15.2034L110.059 12.1164ZM3 12.2585L109.716 12.2585L109.716 11.2884L3 11.2884L3 12.2585Z" fill="#FA840B"></path><path d="M415.657 57.657C415.468 57.8464 415.468 58.1536 415.657 58.343L418.744 61.43C418.934 61.6194 419.241 61.6194 419.43 61.43C419.62 61.2406 419.62 60.9334 419.43 60.744L416.686 58L419.43 55.256C419.62 55.0666 419.62 54.7594 419.43 54.57C419.241 54.3806 418.934 54.3806 418.744 54.57L415.657 57.657ZM522.717 57.5149L416 57.5149L416 58.4851L522.717 58.4851L522.717 57.5149Z" fill="#FA840B"></path></svg> 