<?xml version="1.0" encoding="UTF-8"?> <svg xmlns="http://www.w3.org/2000/svg" width="613" height="266" viewBox="0 0 613 266" fill="none"><path d="M250 259V240H374V259H250Z" fill="#FA840B" stroke="#FA840B"></path><path d="M612 173.355V136H519.408V186.056V236.112H306.5H93.5916V136H1V173.355H63.2509V265H549.749V173.355H612Z" stroke="#FA840B" stroke-width="2"></path><path d="M93.5 137L166.585 50.4612L221.149 17.875L288.227 1H337.785L416.5 24L466.5 57.5L501.5 97L521 136" stroke="#FA840B" stroke-width="2"></path><path d="M115.305 110.814L134.613 127.471L153.922 144.127M120.748 104.504L159.365 137.817M126.191 98.1945L164.808 131.507M131.634 91.8845L170.251 125.197" stroke="#FA840B" stroke-width="2"></path><path d="M99.1913 129.495L137.808 162.807M104.634 123.185L143.252 156.497M110.078 116.875L148.695 150.187M93.748 135.805L132.365 169.117" stroke="#FA840B" stroke-width="2"></path><path d="M495 107L494.612 118.54L504.8 113.107L495 107ZM511.882 136.529L500.118 114.471L498.353 115.412L510.118 137.471L511.882 136.529Z" fill="#FA840B"></path><path d="M461 68L463.487 79.2761L472.009 71.4845L461 68ZM493.738 102.325L467.811 73.9675L466.335 75.317L492.262 103.675L493.738 102.325Z" fill="#FA840B"></path><path d="M414 36L419.172 46.3238L425.527 36.6825L414 36ZM458.55 64.165L422.065 40.1179L420.964 41.7878L457.45 65.835L458.55 64.165Z" fill="#FA840B"></path><path d="M342 15L350.063 23.2653L353.19 12.1496L342 15ZM406.271 32.0373L350.935 16.4741L350.393 18.3994L405.729 33.9627L406.271 32.0373Z" fill="#FA840B"></path><path d="M288 14L298 19.7735V8.2265L288 14ZM335 13L297 13V15L335 15V13Z" fill="#FA840B"></path><path d="M224 29L235.063 32.3087L232.397 21.0737L224 29ZM282.769 14.027L232.526 25.9491L232.988 27.8951L283.231 15.973L282.769 14.027Z" fill="#FA840B"></path><path d="M164 69L175.526 68.3045L169.161 58.6704L164 69ZM219.449 31.1657L170.958 63.2043L172.06 64.873L220.551 32.8343L219.449 31.1657Z" fill="#FA840B"></path></svg> 