<?xml version="1.0" encoding="UTF-8"?> <svg xmlns="http://www.w3.org/2000/svg" width="586" height="132" viewBox="0 0 586 132" fill="none"><path d="M89.5 1H1V38.5H60.5V130.5H525.5V38.5H585V1H89.5ZM89.5 1V101.5H293H496.5V51.25V1" stroke="#FA840B" stroke-width="2"></path><path d="M111.5 1.5V57.5M125 1.5V57.5M138.5 1.5V57.5" stroke="#FA840B" stroke-width="2"></path><path d="M450.5 1.5V57.5M464 1.5V57.5M477.5 1.5V57.5" stroke="#FA840B" stroke-width="2"></path><path d="M222.5 115.5V106.5H365.5V115.5H222.5Z" fill="#FA840B" stroke="#FA840B"></path><path d="M222.5 125.5V118.5H365.5V125.5H222.5Z" fill="#FA840B" stroke="#FA840B"></path><path d="M341 15L331 20.7735V9.2265L341 15ZM299 14L332 14V16L299 16V14Z" fill="#FA840B"></path><path d="M391 15L381 20.7735V9.2265L391 15ZM349 14L382 14V16L349 16V14Z" fill="#FA840B"></path><path d="M441 15L431 20.7735V9.2265L441 15ZM399 14L432 14V16L399 16V14Z" fill="#FA840B"></path><path d="M248 15L258 20.7735V9.2265L248 15ZM290 14L257 14V16L290 16V14Z" fill="#FA840B"></path><path d="M198 15L208 20.7735V9.2265L198 15ZM240 14L207 14V16L240 16V14Z" fill="#FA840B"></path><path d="M148 15L158 20.7735V9.2265L148 15ZM190 14L157 14V16L190 16V14Z" fill="#FA840B"></path></svg> 