<?xml version="1.0" encoding="UTF-8"?> <svg xmlns="http://www.w3.org/2000/svg" width="524" height="245" viewBox="0 0 524 245" fill="none"><path d="M467.5 243.5H1V214H219.75H438.5V144H522.5V173H467.5V243.5Z" stroke="#FA840B" stroke-width="2"></path><path d="M72.5 214.5V1H459.5V143.5" stroke="#FA840B" stroke-width="2"></path><path d="M437 78L431.226 88H442.774L437 78ZM438 132V87H436V132H438Z" fill="#FA840B"></path><path d="M437 11L431.226 21L442.774 21L437 11ZM438 65L438 20L436 20L436 65L438 65Z" fill="#FA840B"></path><path d="M95 147L100.774 137H89.2265L95 147ZM94 93V138H96V93H94Z" fill="#FA840B"></path><path d="M95 80L100.774 70H89.2265L95 80ZM94 26V71H96V26H94Z" fill="#FA840B"></path><path d="M268 15L278 20.7735L278 9.2265L268 15ZM336 14L277 14L277 16L336 16L336 14Z" fill="#FA840B"></path><path d="M183 15L193 20.7735L193 9.2265L183 15ZM251 14L192 14L192 16L251 16L251 14Z" fill="#FA840B"></path><path d="M98 15L108 20.7735L108 9.2265L98 15ZM166 14L107 14L107 16L166 16L166 14Z" fill="#FA840B"></path><path d="M353 15L363 20.7735V9.2265L353 15ZM421 14L362 14V16L421 16V14Z" fill="#FA840B"></path><path d="M73 180H98.5H124M73 173H124M73 166H124M73 159H124" stroke="#FA840B" stroke-width="2"></path><path d="M73 201H124M73 194H124M73 187H124M73 208H124" stroke="#FA840B" stroke-width="2"></path><path d="M228 227V218H351V227H228Z" fill="#FA840B" stroke="#FA840B"></path><path d="M228 239V229H351V239H228Z" fill="#FA840B" stroke="#FA840B"></path></svg> 