<?xml version="1.0" encoding="UTF-8"?> <svg xmlns="http://www.w3.org/2000/svg" width="530" height="62" viewBox="0 0 530 62" fill="none"><rect x="5" y="39.7715" width="84.1843" height="7.77086" stroke="#FA840B" stroke-width="0.647572"></rect><rect x="63.2812" y="32" width="84.1843" height="7.77086" stroke="#FA840B" stroke-width="0.647572"></rect><rect x="121.562" y="24.2305" width="84.1843" height="7.77086" stroke="#FA840B" stroke-width="0.647572"></rect><rect x="179.844" y="16.457" width="84.1843" height="7.77086" stroke="#FA840B" stroke-width="0.647572"></rect><rect width="84.1843" height="7.77086" transform="matrix(-1 0 0 1 525 39.7715)" stroke="#FA840B" stroke-width="0.647572"></rect><rect width="84.1843" height="7.77086" transform="matrix(-1 0 0 1 466.719 32)" stroke="#FA840B" stroke-width="0.647572"></rect><rect width="84.1843" height="7.77086" transform="matrix(-1 0 0 1 408.438 24.2305)" stroke="#FA840B" stroke-width="0.647572"></rect><rect width="84.1843" height="7.77086" transform="matrix(-1 0 0 1 350.156 16.457)" stroke="#FA840B" stroke-width="0.647572"></rect><path d="M76.4618 55.5412C76.5883 55.4148 76.5883 55.2097 76.4618 55.0833L74.4013 53.0227C74.2748 52.8963 74.0698 52.8963 73.9434 53.0227C73.8169 53.1492 73.8169 53.3542 73.9434 53.4806L75.775 55.3122L73.9434 57.1439C73.8169 57.2703 73.8169 57.4753 73.9434 57.6018C74.0698 57.7282 74.2748 57.7282 74.4013 57.6018L76.4618 55.5412ZM5 55.636L76.2329 55.636L76.2329 54.9885L5 54.9885L5 55.636Z" fill="#FA840B"></path><path d="M453.538 55.5412C453.412 55.4148 453.412 55.2097 453.538 55.0833L455.599 53.0227C455.725 52.8963 455.93 52.8963 456.057 53.0227C456.183 53.1492 456.183 53.3542 456.057 53.4806L454.225 55.3122L456.057 57.1439C456.183 57.2703 456.183 57.4753 456.057 57.6018C455.93 57.7282 455.725 57.7282 455.599 57.6018L453.538 55.5412ZM525 55.636L453.767 55.636L453.767 54.9885L525 54.9885L525 55.636Z" fill="#FA840B"></path><path d="M337.433 8.91669C337.559 8.79024 337.559 8.58523 337.433 8.45879L335.372 6.39823C335.246 6.27178 335.041 6.27178 334.914 6.39823C334.788 6.52467 334.788 6.72968 334.914 6.85613L336.746 8.68774L334.914 10.5193C334.788 10.6458 334.788 10.8508 334.914 10.9772C335.041 11.1037 335.246 11.1037 335.372 10.9772L337.433 8.91669ZM265.971 9.01153L337.204 9.01152L337.204 8.36395L265.971 8.36396L265.971 9.01153Z" fill="#FA840B"></path><path d="M192.567 8.91669C192.441 8.79024 192.441 8.58523 192.567 8.45879L194.628 6.39823C194.754 6.27178 194.959 6.27178 195.086 6.39823C195.212 6.52467 195.212 6.72968 195.086 6.85613L193.254 8.68774L195.086 10.5193C195.212 10.6458 195.212 10.8508 195.086 10.9772C194.959 11.1037 194.754 11.1037 194.628 10.9772L192.567 8.91669ZM264.029 9.01153L192.796 9.01152L192.796 8.36395L264.029 8.36396L264.029 9.01153Z" fill="#FA840B"></path></svg> 