<?xml version="1.0" encoding="UTF-8"?> <svg xmlns="http://www.w3.org/2000/svg" width="587" height="132" viewBox="0 0 587 132" fill="none"><path d="M90 1.5H1.5V39H61V131H526V39H585.5V1.5H90ZM90 1.5V102H293.5H497V1.5" stroke="#FA840B" stroke-width="2"></path><path d="M112 2V58M125.5 2V58M139 2V58" stroke="#FA840B" stroke-width="2"></path><path d="M264 116V107H407V116H264Z" fill="#FA840B" stroke="#FA840B"></path><path d="M264 126V119H407V126H264Z" fill="#FA840B" stroke="#FA840B"></path><path d="M412 15L422 20.7735V9.2265L412 15ZM477 14L421 14V16L477 16V14Z" fill="#FA840B"></path><path d="M327 15L337 20.7735V9.2265L327 15ZM392 14L336 14V16L392 16V14Z" fill="#FA840B"></path><path d="M242 15L252 20.7735V9.2265L242 15ZM307 14L251 14V16L307 16V14Z" fill="#FA840B"></path><path d="M157 15L167 20.7735V9.2265L157 15ZM222 14L166 14V16L222 16V14Z" fill="#FA840B"></path></svg> 