<?xml version="1.0" encoding="UTF-8"?> <svg xmlns="http://www.w3.org/2000/svg" width="527" height="63" viewBox="0 0 527 63" fill="none"><path d="M7.26736 54.9012C6.61962 54.9012 6.0728 54.7581 5.6269 54.4719C5.18101 54.1827 4.84358 53.7835 4.61461 53.2743C4.38564 52.7651 4.27115 52.1776 4.27115 51.5118C4.27115 50.846 4.38564 50.2585 4.61461 49.7493C4.84358 49.2402 5.18101 48.8425 5.6269 48.5563C6.0728 48.2671 6.61962 48.1224 7.26736 48.1224C8.02357 48.1224 8.64119 48.3168 9.12023 48.7054C9.59926 49.091 9.92765 49.6092 10.1054 50.26L9.42753 50.4363C9.28894 49.9211 9.04039 49.5128 8.68187 49.2116C8.32334 48.9103 7.85184 48.7596 7.26736 48.7596C6.7582 48.7596 6.33491 48.8756 5.99748 49.1076C5.66004 49.3396 5.40546 49.6635 5.23373 50.0792C5.06502 50.492 4.97765 50.9695 4.97162 51.5118C4.96861 52.0541 5.05146 52.5316 5.22018 52.9444C5.39191 53.3571 5.64799 53.681 5.98844 53.916C6.33189 54.148 6.7582 54.264 7.26736 54.264C7.85184 54.264 8.32334 54.1134 8.68187 53.8121C9.04039 53.5078 9.28894 53.0996 9.42753 52.5874L10.1054 52.7636C9.92765 53.4144 9.59926 53.9341 9.12023 54.3227C8.64119 54.7084 8.02357 54.9012 7.26736 54.9012ZM12.4266 54.7656V50.4995H10.6958V49.8849H14.8218V50.4995H13.091V54.7656H12.4266ZM16.8945 54.9012C16.527 54.9012 16.2182 54.8349 15.9681 54.7024C15.7211 54.5698 15.5358 54.3935 15.4123 54.1736C15.2887 53.9537 15.227 53.7142 15.227 53.4551C15.227 53.1899 15.2797 52.964 15.3851 52.7772C15.4936 52.5874 15.6397 52.4322 15.8235 52.3117C16.0103 52.1912 16.2257 52.0993 16.4697 52.036C16.7168 51.9758 16.9895 51.9231 17.2877 51.8779C17.589 51.8297 17.8827 51.789 18.169 51.7559C18.4582 51.7197 18.7113 51.6851 18.9282 51.6519L18.6932 51.7965C18.7022 51.3145 18.6088 50.9575 18.413 50.7255C18.2172 50.4935 17.8767 50.3775 17.3917 50.3775C17.0572 50.3775 16.774 50.4528 16.5421 50.6035C16.3131 50.7541 16.1519 50.9921 16.0585 51.3175L15.4123 51.1277C15.5237 50.6908 15.7482 50.3519 16.0856 50.1109C16.423 49.8699 16.8614 49.7493 17.4007 49.7493C17.8466 49.7493 18.2247 49.8337 18.535 50.0024C18.8483 50.1681 19.0698 50.4091 19.1993 50.7255C19.2596 50.8671 19.2987 51.0253 19.3168 51.2C19.3349 51.3747 19.3439 51.5525 19.3439 51.7333V54.7656H18.7519V53.5409L18.9237 53.6132C18.758 54.032 18.5004 54.3514 18.1509 54.5713C17.8014 54.7912 17.3826 54.9012 16.8945 54.9012ZM16.9714 54.3273C17.2817 54.3273 17.5528 54.2715 17.7848 54.1601C18.0168 54.0486 18.2036 53.8964 18.3452 53.7036C18.4868 53.5078 18.5787 53.2879 18.6209 53.0438C18.657 52.8872 18.6766 52.7154 18.6796 52.5286C18.6826 52.3388 18.6841 52.1972 18.6841 52.1038L18.9372 52.2349C18.7113 52.265 18.4657 52.2951 18.2006 52.3253C17.9385 52.3554 17.6794 52.39 17.4233 52.4292C17.1702 52.4684 16.9412 52.5151 16.7364 52.5693C16.5978 52.6085 16.4637 52.6642 16.3342 52.7365C16.2046 52.8058 16.0977 52.8992 16.0133 53.0167C15.932 53.1342 15.8913 53.2803 15.8913 53.4551C15.8913 53.5967 15.9259 53.7337 15.9952 53.8663C16.0675 53.9989 16.182 54.1088 16.3387 54.1962C16.4984 54.2836 16.7093 54.3273 16.9714 54.3273ZM21.8445 54.7656V50.4995H20.1137V49.8849H24.2397V50.4995H22.5088V54.7656H21.8445ZM28.9788 49.8849V54.7656H28.3326V50.965L25.6572 54.7656H25.0969V49.8849H25.7431V53.6539L28.423 49.8849H28.9788ZM33.2344 54.7656V52.9489C33.0717 53.0303 32.8714 53.1011 32.6334 53.1613C32.3953 53.2216 32.1393 53.2517 31.8651 53.2517C31.371 53.2517 30.9703 53.1417 30.663 52.9218C30.3557 52.7019 30.1553 52.384 30.0619 51.9683C30.0318 51.8447 30.0107 51.7137 29.9987 51.5751C29.9896 51.4365 29.9836 51.3115 29.9806 51.2C29.9776 51.0885 29.9761 51.0087 29.9761 50.9605V49.8849H30.6449V50.9605C30.6449 51.0599 30.6479 51.1729 30.654 51.2994C30.66 51.426 30.6735 51.5495 30.6946 51.67C30.7549 51.9984 30.8905 52.2469 31.1014 52.4157C31.3153 52.5844 31.615 52.6687 32.0007 52.6687C32.2417 52.6687 32.4692 52.6386 32.6831 52.5783C32.9 52.5151 33.0838 52.4307 33.2344 52.3253V49.8849H33.8987V54.7656H33.2344ZM35.1591 54.7656V49.8849H35.8234V52.0044H38.5756V49.8849H39.2399V54.7656H38.5756V52.6416H35.8234V54.7656H35.1591ZM42.5418 54.9012C42.0567 54.9012 41.6425 54.7912 41.299 54.5713C40.9556 54.3514 40.6919 54.0471 40.5082 53.6584C40.3244 53.2698 40.2325 52.8239 40.2325 52.3208C40.2325 51.8086 40.3259 51.3597 40.5127 50.974C40.6995 50.5884 40.9646 50.2886 41.3081 50.0747C41.6545 49.8578 42.0658 49.7493 42.5418 49.7493C43.0299 49.7493 43.4456 49.8593 43.7891 50.0792C44.1355 50.2962 44.3992 50.5989 44.5799 50.9876C44.7637 51.3732 44.8556 51.8176 44.8556 52.3208C44.8556 52.8329 44.7637 53.2833 44.5799 53.672C44.3962 54.0576 44.131 54.3589 43.7846 54.5758C43.4381 54.7927 43.0238 54.9012 42.5418 54.9012ZM42.5418 54.264C43.0841 54.264 43.4878 54.0847 43.7529 53.7262C44.018 53.3647 44.1506 52.8962 44.1506 52.3208C44.1506 51.7302 44.0165 51.2603 43.7484 50.9108C43.4833 50.5613 43.0811 50.3865 42.5418 50.3865C42.1772 50.3865 41.876 50.4694 41.638 50.6351C41.403 50.7978 41.2267 51.0253 41.1092 51.3175C40.9947 51.6067 40.9375 51.9411 40.9375 52.3208C40.9375 52.9082 41.0731 53.3797 41.3442 53.7353C41.6154 54.0877 42.0145 54.264 42.5418 54.264Z" fill="#FA840B"></path><rect x="4" y="36.084" width="83.9275" height="7.74716" stroke="#FA840B" stroke-width="0.645597"></rect><rect x="62.1035" y="28.3359" width="83.9275" height="7.74716" stroke="#FA840B" stroke-width="0.645597"></rect><rect x="120.207" y="20.5879" width="83.9275" height="7.74716" stroke="#FA840B" stroke-width="0.645597"></rect><rect x="178.312" y="12.8398" width="83.9275" height="7.74716" stroke="#FA840B" stroke-width="0.645597"></rect><rect width="83.9275" height="7.74716" transform="matrix(-1 0 0 1 522.414 36.084)" stroke="#FA840B" stroke-width="0.645597"></rect><rect width="83.9275" height="7.74716" transform="matrix(-1 0 0 1 464.311 28.3359)" stroke="#FA840B" stroke-width="0.645597"></rect><rect width="83.9275" height="7.74716" transform="matrix(-1 0 0 1 406.207 20.5876)" stroke="#FA840B" stroke-width="0.645597"></rect><rect width="83.9275" height="7.74716" transform="matrix(-1 0 0 1 348.102 12.8398)" stroke="#FA840B" stroke-width="0.645597"></rect><path d="M335.42 5.322C335.546 5.19594 335.546 4.99155 335.42 4.86549L333.365 2.81122C333.239 2.68516 333.035 2.68516 332.909 2.81122C332.783 2.93728 332.783 3.14166 332.909 3.26772L334.735 5.09374L332.909 6.91977C332.783 7.04583 332.783 7.25021 332.909 7.37627C333.035 7.50233 333.239 7.50233 333.365 7.37627L335.42 5.322ZM264.176 5.41655L335.191 5.41654L335.191 4.77095L264.176 4.77095L264.176 5.41655Z" fill="#FA840B"></path><path d="M190.994 5.322C190.868 5.19594 190.868 4.99155 190.994 4.86549L193.049 2.81122C193.175 2.68516 193.379 2.68516 193.505 2.81122C193.631 2.93728 193.631 3.14166 193.505 3.26772L191.679 5.09374L193.505 6.91977C193.631 7.04583 193.631 7.25021 193.505 7.37627C193.379 7.50233 193.175 7.50233 193.049 7.37627L190.994 5.322ZM262.238 5.41655L191.223 5.41654L191.223 4.77095L262.238 4.77095L262.238 5.41655Z" fill="#FA840B"></path><path d="M484.363 54.9012C483.715 54.9012 483.168 54.7581 482.723 54.4719C482.277 54.1827 481.939 53.7835 481.71 53.2743C481.481 52.7651 481.367 52.1776 481.367 51.5118C481.367 50.846 481.481 50.2585 481.71 49.7493C481.939 49.2402 482.277 48.8425 482.723 48.5563C483.168 48.2671 483.715 48.1224 484.363 48.1224C485.119 48.1224 485.737 48.3168 486.216 48.7054C486.695 49.091 487.023 49.6092 487.201 50.26L486.523 50.4363C486.385 49.9211 486.136 49.5128 485.778 49.2116C485.419 48.9103 484.948 48.7596 484.363 48.7596C483.854 48.7596 483.431 48.8756 483.093 49.1076C482.756 49.3396 482.501 49.6635 482.329 50.0792C482.161 50.492 482.073 50.9695 482.067 51.5118C482.064 52.0541 482.147 52.5316 482.316 52.9444C482.488 53.3571 482.744 53.681 483.084 53.916C483.428 54.148 483.854 54.264 484.363 54.264C484.948 54.264 485.419 54.1134 485.778 53.8121C486.136 53.5078 486.385 53.0996 486.523 52.5874L487.201 52.7636C487.023 53.4144 486.695 53.9341 486.216 54.3227C485.737 54.7084 485.119 54.9012 484.363 54.9012ZM489.522 54.7656V50.4995H487.791V49.8849H491.918V50.4995H490.187V54.7656H489.522ZM493.99 54.9012C493.623 54.9012 493.314 54.8349 493.064 54.7024C492.817 54.5698 492.631 54.3935 492.508 54.1736C492.384 53.9537 492.323 53.7142 492.323 53.4551C492.323 53.1899 492.375 52.964 492.481 52.7772C492.589 52.5874 492.735 52.4322 492.919 52.3117C493.106 52.1912 493.321 52.0993 493.565 52.036C493.812 51.9758 494.085 51.9231 494.383 51.8779C494.685 51.8297 494.978 51.789 495.265 51.7559C495.554 51.7197 495.807 51.6851 496.024 51.6519L495.789 51.7965C495.798 51.3145 495.705 50.9575 495.509 50.7255C495.313 50.4935 494.972 50.3775 494.487 50.3775C494.153 50.3775 493.87 50.4528 493.638 50.6035C493.409 50.7541 493.248 50.9921 493.154 51.3175L492.508 51.1277C492.619 50.6908 492.844 50.3519 493.181 50.1109C493.519 49.8699 493.957 49.7493 494.496 49.7493C494.942 49.7493 495.32 49.8337 495.631 50.0024C495.944 50.1681 496.165 50.4091 496.295 50.7255C496.355 50.8671 496.394 51.0253 496.413 51.2C496.431 51.3747 496.44 51.5525 496.44 51.7333V54.7656H495.848V53.5409L496.019 53.6132C495.854 54.032 495.596 54.3514 495.247 54.5713C494.897 54.7912 494.478 54.9012 493.99 54.9012ZM494.067 54.3273C494.377 54.3273 494.649 54.2715 494.881 54.1601C495.113 54.0486 495.299 53.8964 495.441 53.7036C495.583 53.5078 495.674 53.2879 495.717 53.0438C495.753 52.8872 495.772 52.7154 495.775 52.5286C495.778 52.3388 495.78 52.1972 495.78 52.1038L496.033 52.2349C495.807 52.265 495.561 52.2951 495.296 52.3253C495.034 52.3554 494.775 52.39 494.519 52.4292C494.266 52.4684 494.037 52.5151 493.832 52.5693C493.693 52.6085 493.559 52.6642 493.43 52.7365C493.3 52.8058 493.193 52.8992 493.109 53.0167C493.028 53.1342 492.987 53.2803 492.987 53.4551C492.987 53.5967 493.022 53.7337 493.091 53.8663C493.163 53.9989 493.278 54.1088 493.434 54.1962C493.594 54.2836 493.805 54.3273 494.067 54.3273ZM498.94 54.7656V50.4995H497.209V49.8849H501.335V50.4995H499.605V54.7656H498.94ZM506.075 49.8849V54.7656H505.428V50.965L502.753 54.7656H502.193V49.8849H502.839V53.6539L505.519 49.8849H506.075ZM510.33 54.7656V52.9489C510.167 53.0303 509.967 53.1011 509.729 53.1613C509.491 53.2216 509.235 53.2517 508.961 53.2517C508.467 53.2517 508.066 53.1417 507.759 52.9218C507.451 52.7019 507.251 52.384 507.158 51.9683C507.128 51.8447 507.106 51.7137 507.094 51.5751C507.085 51.4365 507.079 51.3115 507.076 51.2C507.073 51.0885 507.072 51.0087 507.072 50.9605V49.8849H507.741V50.9605C507.741 51.0599 507.744 51.1729 507.75 51.2994C507.756 51.426 507.769 51.5495 507.79 51.67C507.851 51.9984 507.986 52.2469 508.197 52.4157C508.411 52.5844 508.711 52.6687 509.096 52.6687C509.337 52.6687 509.565 52.6386 509.779 52.5783C509.996 52.5151 510.179 52.4307 510.33 52.3253V49.8849H510.994V54.7656H510.33ZM512.255 54.7656V49.8849H512.919V52.0044H515.671V49.8849H516.336V54.7656H515.671V52.6416H512.919V54.7656H512.255ZM519.637 54.9012C519.152 54.9012 518.738 54.7912 518.395 54.5713C518.051 54.3514 517.788 54.0471 517.604 53.6584C517.42 53.2698 517.328 52.8239 517.328 52.3208C517.328 51.8086 517.422 51.3597 517.608 50.974C517.795 50.5884 518.06 50.2886 518.404 50.0747C518.75 49.8578 519.161 49.7493 519.637 49.7493C520.126 49.7493 520.541 49.8593 520.885 50.0792C521.231 50.2962 521.495 50.5989 521.676 50.9876C521.859 51.3732 521.951 51.8176 521.951 52.3208C521.951 52.8329 521.859 53.2833 521.676 53.672C521.492 54.0576 521.227 54.3589 520.88 54.5758C520.534 54.7927 520.12 54.9012 519.637 54.9012ZM519.637 54.264C520.18 54.264 520.584 54.0847 520.849 53.7262C521.114 53.3647 521.246 52.8962 521.246 52.3208C521.246 51.7302 521.112 51.2603 520.844 50.9108C520.579 50.5613 520.177 50.3865 519.637 50.3865C519.273 50.3865 518.972 50.4694 518.734 50.6351C518.499 50.7978 518.322 51.0253 518.205 51.3175C518.09 51.6067 518.033 51.9411 518.033 52.3208C518.033 52.9082 518.169 53.3797 518.44 53.7353C518.711 54.0877 519.11 54.264 519.637 54.264Z" fill="#FA840B"></path></svg> 